<mxfile host="app.diagrams.net" modified="2023-11-27T20:28:42.004Z" agent="Mozilla/5.0 (Windows NT 10.0; Win64; x64; rv:121.0) Gecko/20100101 Firefox/121.0" etag="ggBZyjMZzqwF01x3wEDj" version="22.1.4" type="device">
  <diagram name="Page-1" id="c4acf3e9-155e-7222-9cf6-157b1a14988f">
    <mxGraphModel dx="2284" dy="774" grid="1" gridSize="10" guides="1" tooltips="1" connect="1" arrows="1" fold="1" page="1" pageScale="1" pageWidth="850" pageHeight="1100" background="none" math="0" shadow="0">
      <root>
        <mxCell id="0" />
        <mxCell id="1" parent="0" />
        <mxCell id="aIywZl3QLCYLbJzzbFli-5" value="&lt;p style=&quot;margin:0px;margin-top:4px;text-align:center;&quot;&gt;&lt;font style=&quot;font-size: 14px;&quot;&gt;&lt;i&gt;&amp;lt;&amp;lt;Interface&amp;gt;&amp;gt;&lt;/i&gt;&lt;/font&gt;&lt;/p&gt;&lt;p style=&quot;margin:0px;margin-top:4px;text-align:center;&quot;&gt;&lt;font size=&quot;3&quot;&gt;&lt;b&gt;MusicPlayer&lt;/b&gt;&lt;br&gt;&lt;/font&gt;&lt;/p&gt;&lt;hr size=&quot;1&quot;&gt;&lt;p style=&quot;margin:0px;margin-left:4px;&quot;&gt;&lt;font size=&quot;3&quot;&gt;+ play(): void&lt;/font&gt;&lt;/p&gt;&lt;p style=&quot;margin:0px;margin-left:4px;&quot;&gt;&lt;font size=&quot;3&quot;&gt;+ pause(): void&lt;/font&gt;&lt;/p&gt;&lt;p style=&quot;margin:0px;margin-left:4px;&quot;&gt;&lt;font size=&quot;3&quot;&gt;+ selectMusic(id : int): void&lt;br&gt;&lt;/font&gt;&lt;/p&gt;" style="verticalAlign=top;align=left;overflow=fill;fontSize=12;fontFamily=Helvetica;html=1;whiteSpace=wrap;" vertex="1" parent="1">
          <mxGeometry x="-835" y="545" width="260" height="140" as="geometry" />
        </mxCell>
        <mxCell id="aIywZl3QLCYLbJzzbFli-6" value="&lt;p style=&quot;margin:0px;margin-top:4px;text-align:center;&quot;&gt;&lt;font style=&quot;font-size: 14px;&quot;&gt;&lt;i&gt;&amp;lt;&amp;lt;Interface&amp;gt;&amp;gt;&lt;/i&gt;&lt;/font&gt;&lt;/p&gt;&lt;p style=&quot;margin:0px;margin-top:4px;text-align:center;&quot;&gt;&lt;font size=&quot;3&quot;&gt;&lt;b&gt;CellPhone&lt;/b&gt;&lt;br&gt;&lt;/font&gt;&lt;/p&gt;&lt;hr size=&quot;1&quot;&gt;&lt;p style=&quot;margin:0px;margin-left:4px;&quot;&gt;&lt;font size=&quot;3&quot;&gt;+ call(): void&lt;/font&gt;&lt;/p&gt;&lt;p style=&quot;margin:0px;margin-left:4px;&quot;&gt;&lt;font size=&quot;3&quot;&gt;+ answer&lt;/font&gt;&lt;font size=&quot;3&quot;&gt;(): void&lt;/font&gt;&lt;/p&gt;&lt;p style=&quot;margin:0px;margin-left:4px;&quot;&gt;&lt;font size=&quot;3&quot;&gt;+ voiceMail(): void&lt;br&gt;&lt;/font&gt;&lt;/p&gt;" style="verticalAlign=top;align=left;overflow=fill;fontSize=12;fontFamily=Helvetica;html=1;whiteSpace=wrap;" vertex="1" parent="1">
          <mxGeometry x="-555" y="545" width="260" height="140" as="geometry" />
        </mxCell>
        <mxCell id="aIywZl3QLCYLbJzzbFli-7" value="&lt;p style=&quot;margin:0px;margin-top:4px;text-align:center;&quot;&gt;&lt;font style=&quot;font-size: 14px;&quot;&gt;&lt;i&gt;&amp;lt;&amp;lt;Interface&amp;gt;&amp;gt;&lt;/i&gt;&lt;/font&gt;&lt;/p&gt;&lt;p style=&quot;margin:0px;margin-top:4px;text-align:center;&quot;&gt;&lt;font size=&quot;3&quot;&gt;&lt;b&gt;Browser&lt;/b&gt;&lt;br&gt;&lt;/font&gt;&lt;/p&gt;&lt;hr size=&quot;1&quot;&gt;&lt;p style=&quot;margin:0px;margin-left:4px;&quot;&gt;&lt;font size=&quot;3&quot;&gt;+ newTab(): void&lt;/font&gt;&lt;/p&gt;&lt;p style=&quot;margin:0px;margin-left:4px;&quot;&gt;&lt;font size=&quot;3&quot;&gt;+ refreshPage&lt;/font&gt;&lt;font size=&quot;3&quot;&gt;(): void&lt;/font&gt;&lt;/p&gt;&lt;p style=&quot;margin:0px;margin-left:4px;&quot;&gt;&lt;font size=&quot;3&quot;&gt;+ showPage(): void&lt;br&gt;&lt;/font&gt;&lt;/p&gt;" style="verticalAlign=top;align=left;overflow=fill;fontSize=12;fontFamily=Helvetica;html=1;whiteSpace=wrap;" vertex="1" parent="1">
          <mxGeometry x="-275" y="545" width="260" height="140" as="geometry" />
        </mxCell>
        <mxCell id="aIywZl3QLCYLbJzzbFli-19" style="edgeStyle=orthogonalEdgeStyle;rounded=0;orthogonalLoop=1;jettySize=auto;html=1;" edge="1" parent="1" source="aIywZl3QLCYLbJzzbFli-8">
          <mxGeometry relative="1" as="geometry">
            <mxPoint x="-425" y="540" as="targetPoint" />
          </mxGeometry>
        </mxCell>
        <mxCell id="aIywZl3QLCYLbJzzbFli-20" style="edgeStyle=orthogonalEdgeStyle;rounded=0;orthogonalLoop=1;jettySize=auto;html=1;entryX=0.5;entryY=0;entryDx=0;entryDy=0;" edge="1" parent="1" source="aIywZl3QLCYLbJzzbFli-8" target="aIywZl3QLCYLbJzzbFli-5">
          <mxGeometry relative="1" as="geometry" />
        </mxCell>
        <mxCell id="aIywZl3QLCYLbJzzbFli-21" style="edgeStyle=orthogonalEdgeStyle;rounded=0;orthogonalLoop=1;jettySize=auto;html=1;" edge="1" parent="1" source="aIywZl3QLCYLbJzzbFli-8" target="aIywZl3QLCYLbJzzbFli-7">
          <mxGeometry relative="1" as="geometry" />
        </mxCell>
        <mxCell id="aIywZl3QLCYLbJzzbFli-8" value="&lt;font style=&quot;font-size: 14px;&quot;&gt;Iphone&lt;/font&gt;" style="swimlane;fontStyle=0;childLayout=stackLayout;horizontal=1;startSize=26;fillColor=none;horizontalStack=0;resizeParent=1;resizeParentMax=0;resizeLast=0;collapsible=1;marginBottom=0;whiteSpace=wrap;html=1;" vertex="1" parent="1">
          <mxGeometry x="-545" y="280" width="240" height="78" as="geometry" />
        </mxCell>
        <mxCell id="aIywZl3QLCYLbJzzbFli-9" value="&lt;font style=&quot;font-size: 14px;&quot;&gt;+ serialNumber: String&lt;/font&gt;" style="text;strokeColor=none;fillColor=none;align=left;verticalAlign=top;spacingLeft=4;spacingRight=4;overflow=hidden;rotatable=0;points=[[0,0.5],[1,0.5]];portConstraint=eastwest;whiteSpace=wrap;html=1;" vertex="1" parent="aIywZl3QLCYLbJzzbFli-8">
          <mxGeometry y="26" width="240" height="26" as="geometry" />
        </mxCell>
        <mxCell id="aIywZl3QLCYLbJzzbFli-10" value="&lt;font style=&quot;font-size: 14px;&quot;&gt;+ phoneNumber: int&lt;/font&gt;" style="text;strokeColor=none;fillColor=none;align=left;verticalAlign=top;spacingLeft=4;spacingRight=4;overflow=hidden;rotatable=0;points=[[0,0.5],[1,0.5]];portConstraint=eastwest;whiteSpace=wrap;html=1;" vertex="1" parent="aIywZl3QLCYLbJzzbFli-8">
          <mxGeometry y="52" width="240" height="26" as="geometry" />
        </mxCell>
      </root>
    </mxGraphModel>
  </diagram>
</mxfile>
